<svg width="1703" height="1079" viewBox="0 0 1703 1079" fill="none" xmlns="http://www.w3.org/2000/svg">
<path d="M266.375 83.6875C267.427 83.6893 268.478 83.6911 269.562 83.693C286.559 83.7424 303.173 84.4292 320 87C321.142 87.1716 322.283 87.3432 323.46 87.52C401.913 99.6673 493.252 136.563 542.625 202.25C560.738 227.128 569.5 254.66 565.688 285.526C565.044 289.424 564.154 293.223 563 297C564.949 297.186 564.949 297.186 566.938 297.375C571.719 297.899 576.331 298.863 581 300C584.468 259.133 578.684 218.517 551.454 186.163C548.091 182.321 544.585 178.634 541 175C540.461 174.436 539.921 173.873 539.365 173.292C535.208 169.009 530.802 165.35 526 161.812C525.327 161.305 524.654 160.798 523.961 160.275C517.296 155.315 511.353 151.633 503.063 150.25C502.379 150.125 501.695 150 500.99 149.871C499.329 149.569 497.665 149.283 496 149C500.292 134.552 515.305 126.548 527.804 119.669C536.568 115.014 545.673 111.356 555 108C555.769 107.722 556.538 107.443 557.33 107.157C579.932 99.1337 608.808 90.6762 631.969 100.52C632.969 101.008 633.97 101.497 635 102C635.959 102.458 636.918 102.915 637.906 103.387C648.807 108.975 658.152 116.607 667 125C667.936 125.871 668.872 126.743 669.836 127.641C695.747 152.269 720.408 189.287 721.403 225.978C721.529 237.815 720.525 248.693 717 260C716.775 260.727 716.549 261.455 716.317 262.205C708.01 288.129 693.863 312.127 681 336C661.714 336.217 642.48 335.217 623.225 334.223C617.284 333.917 611.344 333.631 605.4 333.393C599.6 333.16 593.805 332.877 588.01 332.557C585.816 332.444 583.622 332.35 581.428 332.274C563.468 331.635 563.468 331.635 558.504 327.545C555.995 324.815 553.993 322.118 552 319C550.806 317.58 549.593 316.176 548.348 314.801C547.796 314.167 547.245 313.534 546.676 312.881C514.095 276.314 470.356 252.152 421.242 248.812C390.875 247.989 363.115 260.373 341.227 280.871C340.492 281.574 339.757 282.276 339 283C338.327 283.61 337.654 284.219 336.961 284.848C322.83 298.106 313.966 315.276 311.563 334.5C312.973 345.785 316.776 354.614 325.406 362.082C349.096 380.302 382.805 387.098 412.134 387.174C413.771 387.184 413.771 387.184 415.441 387.194C417.807 387.208 420.173 387.22 422.539 387.23C426.333 387.246 430.126 387.27 433.919 387.295C444.705 387.365 455.492 387.424 466.278 387.477C519.061 387.74 519.061 387.74 544.805 388.953C545.681 388.994 546.557 389.036 547.46 389.078C597.993 391.524 655.066 395.407 695 430C695.745 430.643 696.49 431.286 697.258 431.949C712.072 445.773 722.296 465.121 729 484C729.222 484.623 729.443 485.246 729.671 485.888C735.249 501.864 739.052 519.04 739.238 535.996C739.248 536.738 739.258 537.481 739.268 538.246C739.718 581.242 730.727 624.507 702 658C701.534 658.545 701.067 659.09 700.586 659.651C685.575 676.96 667.656 689.391 647 699C645.378 699.783 645.378 699.783 643.723 700.582C629.185 707.26 613.384 711.419 597.688 714.312C596.891 714.46 596.094 714.607 595.274 714.758C578.434 717.629 561.681 718.374 544.625 718.312C543.574 718.311 542.522 718.309 541.439 718.307C524.441 718.258 507.827 717.571 491 715C489.859 714.828 488.717 714.657 487.541 714.48C422.117 704.35 358.112 678.176 306 637C305.454 636.571 304.907 636.141 304.344 635.699C276.373 613.508 250.97 584.08 245.309 547.699C243.745 534.036 243.53 519.144 248 506C247.12 505.867 246.239 505.734 245.332 505.598C244.171 505.421 243.009 505.244 241.813 505.062C240.09 504.801 240.09 504.801 238.332 504.535C235.537 504.086 232.771 503.579 230 503C225.751 548.151 235.181 586.547 264.25 621.723C274.602 633.682 291.257 648.898 307.188 651.625C307.937 651.759 308.687 651.893 309.459 652.031C311.305 652.36 313.152 652.681 315 653C311.004 666.713 297.076 674.673 285.275 681.395C266.477 691.652 245.843 698.381 225 703C223.83 703.266 222.659 703.531 221.453 703.805C206.289 706.673 189.989 706.954 176 700C175.364 699.689 174.728 699.378 174.073 699.057C163.885 693.987 155.268 687.781 147 680C146.057 679.12 146.057 679.12 145.094 678.222C134.899 668.627 126.104 658.406 118 647C117.324 646.059 117.324 646.059 116.634 645.099C107.581 632.402 99.7628 618.711 94.5002 604C94.2691 603.355 94.038 602.71 93.8 602.045C82.5718 568.54 94.3742 536.096 109.277 506.074C115.867 492.878 122.807 479.878 130 467C149.199 466.756 168.36 467.846 187.528 468.829C193.606 469.14 199.685 469.433 205.767 469.682C211.694 469.926 217.618 470.216 223.542 470.538C225.787 470.652 228.032 470.75 230.277 470.831C247.749 471.479 247.749 471.479 253.298 475.228C255.563 477.715 257.273 480.124 259 483C260.171 484.401 261.364 485.784 262.59 487.137C263.151 487.779 263.711 488.422 264.289 489.083C296.937 525.644 340.583 549.844 389.758 553.187C420.125 554.011 447.885 541.627 469.774 521.129C470.508 520.426 471.243 519.724 472 519C472.673 518.39 473.346 517.781 474.039 517.152C488.077 503.982 497.388 486.588 499.375 467.375C498.061 455.547 493.622 446.699 484.563 438.875C449.002 412.205 394.906 411.507 352.454 413.361C172.7 421.032 172.7 421.032 116 372C115.267 371.38 114.533 370.76 113.778 370.121C92.5253 350.614 80.9867 320.508 75.0002 293C74.7546 291.916 74.7546 291.916 74.5041 290.81C64.7359 245.823 74.6597 195.718 99.0002 157C102.048 152.433 105.426 148.167 109 144C109.467 143.455 109.933 142.91 110.414 142.349C125.425 125.04 143.344 112.609 164 103C165.082 102.478 166.163 101.956 167.277 101.418C181.815 94.7395 197.617 90.5811 213.313 87.6875C214.109 87.5404 214.906 87.3932 215.727 87.2417C232.566 84.3713 249.319 83.6259 266.375 83.6875Z" fill="#FCFCFC"/>
<path d="M987 106C1002.51 106 1018.02 106 1034 106C1034 112.307 1034.01 118.613 1034.01 125.111C1034.04 166.759 1034.07 208.407 1034.12 250.054C1034.12 251.12 1034.12 251.12 1034.12 252.208C1034.14 267.653 1034.16 283.098 1034.18 298.542C1034.19 306.117 1034.2 313.691 1034.21 321.265C1034.21 322.019 1034.21 322.772 1034.21 323.549C1034.24 347.979 1034.26 372.41 1034.27 396.84C1034.28 421.946 1034.31 447.051 1034.35 472.156C1034.36 475.702 1034.36 479.248 1034.37 482.794C1034.37 483.492 1034.37 484.19 1034.37 484.909C1034.39 496.143 1034.39 507.378 1034.39 518.612C1034.39 529.906 1034.4 541.2 1034.43 552.494C1034.45 558.614 1034.46 564.733 1034.45 570.853C1034.44 576.454 1034.45 582.056 1034.47 587.658C1034.48 589.685 1034.48 591.712 1034.47 593.739C1034.46 596.495 1034.47 599.25 1034.49 602.006C1034.48 603.186 1034.48 603.186 1034.47 604.389C1034.55 610.205 1036.04 614.977 1039 620C1042.85 623.583 1046.5 624.753 1051.64 625.09C1058.82 624.817 1063.9 621.752 1069.27 617.207C1073.77 611.463 1074.44 605.208 1074.38 598.191C1074.39 597.336 1074.4 596.481 1074.4 595.6C1074.41 592.739 1074.41 589.879 1074.4 587.018C1074.4 584.945 1074.41 582.871 1074.42 580.798C1074.44 575.104 1074.44 569.41 1074.43 563.715C1074.43 557.574 1074.45 551.432 1074.46 545.29C1074.49 534.651 1074.5 524.011 1074.5 513.371C1074.51 502.213 1074.52 491.056 1074.54 479.898C1074.54 479.204 1074.54 478.51 1074.54 477.795C1074.55 474.27 1074.55 470.746 1074.56 467.221C1074.6 442.263 1074.63 417.304 1074.65 392.346C1074.67 368.101 1074.7 343.856 1074.74 319.611C1074.74 318.863 1074.74 318.116 1074.74 317.346C1074.75 309.839 1074.76 302.333 1074.77 294.826C1074.8 279.535 1074.82 264.244 1074.84 248.953C1074.84 248.25 1074.84 247.547 1074.84 246.822C1074.91 199.881 1074.95 152.941 1075 106C1105.69 106 1136.38 106 1168 106C1168 112.428 1168.01 118.855 1168.01 125.477C1168.04 167.928 1168.07 210.379 1168.12 252.83C1168.12 253.917 1168.12 253.917 1168.12 255.025C1168.14 270.771 1168.16 286.516 1168.18 302.262C1168.19 309.984 1168.2 317.706 1168.21 325.427C1168.21 326.196 1168.21 326.964 1168.21 327.756C1168.24 352.658 1168.26 377.559 1168.27 402.461C1168.28 428.052 1168.31 453.644 1168.35 479.236C1168.36 482.852 1168.36 486.467 1168.37 490.083C1168.37 491.15 1168.37 491.15 1168.37 492.239C1168.39 503.689 1168.39 515.138 1168.39 526.588C1168.39 538.102 1168.4 549.615 1168.43 561.129C1168.45 567.366 1168.46 573.603 1168.45 579.84C1168.44 585.552 1168.45 591.264 1168.47 596.975C1168.48 599.04 1168.48 601.105 1168.47 603.17C1168.33 618.026 1168.33 618.026 1173 632C1173.49 632.995 1173.98 633.99 1174.49 635.016C1177.32 639.579 1180.19 643.63 1184 647.43C1185 649 1185 649 1184.71 650.911C1183.54 654.344 1181 656.775 1178.63 659.438C1177.53 660.692 1176.43 661.948 1175.33 663.203C1174.77 663.837 1174.22 664.47 1173.64 665.123C1171.17 667.951 1168.74 670.816 1166.31 673.688C1165.86 674.225 1165.4 674.763 1164.93 675.316C1162.11 678.662 1159.32 682.039 1156.56 685.438C1152.63 690.266 1148.61 695.008 1144.53 699.705C1142.01 702.61 1139.56 705.538 1137.22 708.594C1136.78 709.157 1136.34 709.721 1135.89 710.301C1134.7 711.844 1133.52 713.404 1132.35 714.965C1130 717 1130 717 1127.2 717.043C1123.34 715.784 1119.8 714.221 1116.19 712.375C1115.48 712.016 1114.77 711.657 1114.05 711.287C1108.51 708.407 1103.64 705.19 1099 701C1098.33 700.432 1097.66 699.863 1096.96 699.277C1091.48 694.3 1088.14 688.521 1084.66 682.074C1083.04 678.956 1083.04 678.956 1081 676C1080.37 676.776 1079.74 677.552 1079.09 678.352C1064.19 696.438 1048.3 713.209 1024 717C1004.49 718.49 985.825 716.238 970.25 703.438C951.835 685.638 941.303 658.77 940.704 633.443C940.665 630.553 940.651 627.663 940.638 624.773C940.625 623.155 940.61 621.537 940.595 619.92C940.556 615.502 940.529 611.084 940.504 606.666C940.481 602.869 940.452 599.071 940.422 595.273C940.14 559.097 940.009 522.92 939.903 486.743C939.889 482.025 939.875 477.308 939.86 472.59C939.857 471.418 939.853 470.245 939.85 469.037C939.79 450.15 939.661 431.263 939.503 412.376C939.342 392.897 939.252 373.417 939.225 353.937C939.209 343.036 939.162 332.136 939.036 321.236C938.528 275.939 938.307 235.425 956.757 193.299C960.173 185.421 962.784 177.26 965.452 169.106C966.793 165.042 968.191 160.999 969.586 156.953C970.142 155.334 970.698 153.715 971.253 152.096C971.535 151.273 971.818 150.45 972.108 149.602C974.342 143.084 976.566 136.563 978.792 130.042C981.527 122.028 984.264 114.014 987 106Z" fill="#FBFBFB"/>
<path d="M908 104C908 133.04 908 162.08 908 192C905.03 192.99 902.06 193.98 899 195C887.076 199.097 879.739 204.522 874 216C870.441 224.631 867.946 233.351 867.795 242.73C867.775 243.831 867.755 244.931 867.734 246.065C867.718 247.237 867.701 248.41 867.684 249.617C867.652 251.436 867.652 251.436 867.621 253.291C867.555 257.152 867.496 261.014 867.438 264.875C867.394 267.497 867.351 270.12 867.307 272.742C867.199 279.161 867.1 285.581 867 292C880.53 292 894.06 292 908 292C908 317.41 908 342.82 908 369C894.47 369 880.94 369 867 369C867.004 375.304 867.009 381.609 867.013 388.104C867.042 429.786 867.069 471.468 867.085 513.15C867.085 513.863 867.085 514.575 867.086 515.309C867.092 530.796 867.097 546.283 867.102 561.77C867.105 569.366 867.107 576.962 867.11 584.558C867.11 585.314 867.11 586.07 867.111 586.848C867.119 611.299 867.134 635.749 867.153 660.199C867.172 685.348 867.184 710.497 867.188 735.646C867.188 739.207 867.189 742.769 867.19 746.33C867.19 747.381 867.19 747.381 867.19 748.454C867.193 759.684 867.202 770.915 867.214 782.146C867.226 793.467 867.23 804.788 867.227 816.11C867.226 822.231 867.228 828.353 867.238 834.475C867.422 944.202 867.422 944.202 837 977C836.23 977.849 835.461 978.699 834.668 979.574C815.089 1000.23 788.491 1009.62 761 1014C760.331 1014.11 759.662 1014.21 758.973 1014.33C751.237 1015.37 743.976 1015 736 1015C736 982 736 949 736 915C740.62 914.01 745.24 913.02 750 912C758.2 908.179 762.424 904.322 766 896C773.069 876.43 773.148 855.532 773.158 834.986C773.163 832.97 773.168 830.955 773.173 828.939C773.187 823.427 773.194 817.915 773.201 812.403C773.209 806.449 773.222 800.495 773.235 794.541C773.257 784.234 773.275 773.927 773.291 763.62C773.307 752.816 773.326 742.011 773.347 731.206C773.348 730.533 773.35 729.86 773.351 729.167C773.358 725.75 773.364 722.332 773.371 718.915C773.419 694.736 773.462 670.557 773.503 646.378C773.542 622.894 773.583 599.411 773.628 575.927C773.629 575.203 773.63 574.479 773.632 573.732C773.646 566.457 773.659 559.182 773.673 551.907C773.701 537.088 773.729 522.27 773.756 507.451C773.758 506.769 773.759 506.088 773.76 505.386C773.845 459.924 773.923 414.462 774 369C761.46 369 748.92 369 736 369C736 343.59 736 318.18 736 292C748.54 292 761.08 292 774 292C773.965 288.031 773.93 284.062 773.895 279.973C773.875 276.727 773.859 273.482 773.845 270.237C773.829 266.856 773.807 263.475 773.774 260.094C773.328 213.325 780.841 168.041 813.812 132.75C840.09 107.855 873.105 104 908 104Z" fill="#FCFCFC"/>
<path d="M1565 116C1600.68 144.302 1614.95 191.6 1620.26 235.154C1620.98 241.664 1621.18 248.11 1621.2 254.656C1621.21 255.757 1621.21 256.857 1621.22 257.991C1621.23 260.318 1621.24 262.644 1621.24 264.97C1621.25 268.435 1621.28 271.899 1621.31 275.363C1621.52 320.087 1613.14 368.27 1586 405C1585.24 406.057 1584.48 407.114 1583.69 408.203C1572.22 423.709 1558.18 437.48 1542 448C1541.11 448.584 1541.11 448.584 1540.2 449.18C1506.56 471 1506.56 471 1492 471C1494.33 516.681 1500.81 567.827 1536 601C1549.82 612.176 1564.98 618.357 1582.93 616.75C1591.95 615.352 1602.01 612.164 1610.09 607.894C1612 607 1612 607 1615 607C1612.79 615.391 1610.29 623.672 1607.68 631.949C1607.26 633.292 1606.84 634.634 1606.42 635.977C1605.32 639.504 1604.21 643.031 1603.11 646.558C1601.8 650.72 1600.5 654.883 1599.19 659.045C1598.11 662.496 1597.03 665.945 1595.95 669.395C1593.92 675.868 1591.89 682.344 1589.89 688.828C1588.97 691.804 1588.05 694.778 1587.13 697.753C1586.7 699.17 1586.26 700.587 1585.83 702.005C1585.23 703.964 1584.62 705.921 1584.02 707.878C1583.5 709.548 1583.5 709.547 1582.98 711.251C1582 714 1582 714 1580 717C1577.43 717.404 1577.43 717.404 1574.16 717.434C1572.96 717.445 1571.76 717.456 1570.53 717.468C1569.24 717.458 1567.95 717.448 1566.62 717.438C1565.31 717.431 1564 717.424 1562.65 717.417C1551.7 717.238 1541.53 715.931 1531 713C1530.33 712.818 1529.66 712.636 1528.97 712.449C1508.89 706.847 1490.6 695.638 1475 682C1474.03 681.157 1473.07 680.314 1472.07 679.445C1454.25 663.625 1439.88 645.233 1429 624C1428.1 622.238 1428.1 622.238 1427.18 620.441C1392.15 548.574 1393.45 463.235 1393.67 385.165C1393.69 378.438 1393.69 371.71 1393.68 364.983C1393.68 357.558 1393.68 350.133 1393.69 342.708C1393.7 339.612 1393.7 336.517 1393.7 333.421C1393.69 307.936 1394.6 282.563 1397.81 257.25C1397.9 256.577 1397.98 255.904 1398.07 255.21C1404.07 207.409 1416.33 150.706 1455 118C1487.18 93.7732 1531.72 93.0788 1565 116ZM1510 197C1489.34 229.987 1486.79 265.695 1486.9 303.91C1486.9 305.859 1486.91 307.808 1486.91 309.756C1486.91 314.824 1486.92 319.893 1486.93 324.961C1486.94 330.157 1486.95 335.353 1486.95 340.549C1486.96 350.699 1486.98 360.85 1487 371C1501.73 366.318 1512.18 354.114 1519.21 340.758C1536.34 306.073 1534.59 253.491 1522.75 217.637C1520.14 210.331 1516.58 201.386 1510 197Z" fill="#FCFCFC"/>
<path d="M1326 104C1326.65 104.214 1327.3 104.429 1327.96 104.649C1338.45 108.16 1348.21 112.888 1358 118C1358.66 118.33 1359.32 118.66 1360 119C1360 147.05 1360 175.1 1360 204C1357.03 202.02 1354.06 200.04 1351 198C1339.59 191.146 1330.37 187.298 1317 190C1306.5 193.824 1299.97 200.104 1295 210C1274.62 259.991 1311.41 337.052 1327.49 385.555C1342.59 431.166 1356.35 477.519 1364.5 524.937C1364.62 525.623 1364.74 526.309 1364.86 527.015C1368 545.44 1369.38 563.566 1369.31 582.25C1369.31 583.238 1369.31 584.225 1369.31 585.243C1369.26 599.669 1368.93 613.825 1366 628C1365.83 628.841 1365.67 629.682 1365.5 630.548C1359.94 657.822 1347.29 683.679 1324.04 700.09C1298.91 716.254 1269.19 721.548 1239.75 715.375C1226.67 712.311 1215.03 707.013 1203 701C1203 670.97 1203 640.94 1203 610C1206.96 612.97 1206.96 612.97 1211 616C1223.36 624.661 1235.53 628.786 1250.75 626.375C1260.67 624.178 1269.93 619.275 1276 611C1293.03 581.992 1280.83 542.34 1273 512.113C1265.73 484.414 1256.78 457.251 1247.67 430.114C1239.98 407.206 1232.62 384.243 1226 361C1225.79 360.272 1225.58 359.544 1225.37 358.794C1206.34 291.929 1187.22 207.639 1222.39 142.905C1233.89 122.916 1252.79 108.236 1275 102C1291.85 98.138 1309.61 98.4564 1326 104Z" fill="#FBFBFB"/>
<path d="M1615 607C1614.55 608.751 1614.09 610.501 1613.62 612.25C1613.37 613.225 1613.11 614.199 1612.85 615.203C1612.1 617.658 1611.23 619.756 1610 622C1610.48 617.286 1610.97 613.334 1613 609C1612.01 608.67 1611.02 608.34 1610 608C1612 607 1612 607 1615 607Z" fill="#8B8B8B"/>
</svg>
